<svg width="375" height="375" viewBox="0 0 375 375" fill="none" xmlns="http://www.w3.org/2000/svg">
<g clip-path="url(#clip0)">
<path d="M52.5003 70.7022C-56.7275 44.1472 -95.9997 123.004 -16.9997 202.702C-10.4998 251.582 -11.4306 417.056 155.5 342.202C281.5 285.702 299 486.202 438.955 251.582C458.222 219.283 431.053 144.045 429.641 123.004C427.623 105.687 446.5 60.2022 342.5 20.7022C190.193 -37.1454 211.342 109.319 52.5003 70.7022Z" fill="#E8F2FD"/>
<path d="M-10.2041 142C1.78547 142.119 -4.30619 158.99 -6.13471 163.468C-2.78332 166.224 0.0587311 169.028 2.4509 171.753C2.3541 165.887 -1.57365 161.689 -0.478344 157.998C0.749828 153.859 4.81921 150.33 8.47969 157.357C11.3801 162.925 5.81042 170.089 3.37124 172.826C7.417 177.626 10.0929 182.113 11.8013 185.562C12.6965 178.783 8.72308 173.428 10.4342 169.362C12.3061 164.913 17.1977 161.521 20.2845 169.834C22.8359 176.705 15.1132 184.291 12.3563 186.717C13.8414 189.905 14.4177 191.979 14.4776 192.201C15.662 196.382 16.5723 200.47 17.251 204.448C18.1797 198.495 15.7493 193.251 17.7876 189.757C20.2338 185.562 25.4856 182.857 27.3504 191.634C28.8261 198.578 21.01 204.837 17.6792 207.15C18.899 215.491 19.1037 223.315 18.6755 230.47C21.4169 225.474 21.852 216.609 25.8881 212.825C28.5355 210.342 30.9401 210.777 32.5003 211.588C33.8334 212.282 34.7038 213.57 34.921 215.109C36.1492 223.807 22.7112 230.099 18.5893 231.814C17.9587 240.616 16.3804 248.357 14.5781 254.728C16.0175 252.155 18.1729 248.262 19.2064 246.196C20.835 242.939 24.6501 239.269 27.9909 238.835C28.13 238.816 28.2659 238.804 28.3983 238.795C30.9367 238.632 32.9659 240.49 33.3241 242.996C34.7251 252.799 17.5821 256.459 13.8686 257.135C13.8551 257.179 13.842 257.224 13.8285 257.268C8.90294 273.221 2.25127 282.609 1.97073 283L0.630699 282.075C0.695736 281.984 7.02119 273.043 11.8098 258.175C-0.404079 248.907 1.00676 238.688 4.67947 236.726C8.47452 234.699 14.3132 236.563 13.0015 243.771C12.2406 247.951 12.3872 252.435 12.6444 255.467C14.5238 249.073 16.2067 241.169 16.8773 232.115C-3.02481 226.314 2.75803 213.799 7.97207 213.138C13.2496 212.468 15.0528 215.823 15.0975 221.875C15.1275 225.895 16.2244 229.176 16.9593 230.932C17.404 223.915 17.2291 216.23 16.0668 208.033C12.3973 209.334 2.82605 212.01 -1.1493 206.258C-6.11758 199.07 -0.854137 196.393 3.65846 197.026C7.80724 197.609 9.96605 204.123 15.8923 206.844C15.1992 202.305 14.2065 197.617 12.8418 192.799C12.821 192.721 11.6652 188.559 8.19614 182.705C4.63805 184.463 -4.56359 188.256 -9.24962 183.153C-15.1346 176.744 -10.1878 173.443 -5.58056 173.483C-1.46934 173.519 1.46008 179.274 7.37599 181.355C4.31029 176.469 -0.309853 170.61 -7.07853 165.002C-10.7822 166.801 -19.7183 170.347 -24.3109 165.346C-30.1959 158.937 -25.2491 155.635 -20.6414 155.675C-16.4727 155.711 -13.5209 161.632 -7.43586 163.636L-7.31717 163.49C-8.64622 161.539 -11.4808 157.408 -12.9446 155.512C-14.8976 152.982 -16.0131 148.426 -14.5626 145.399C-13.1116 142.371 -10.2041 142 -10.2041 142Z" fill="#D8E4EF"/>
<path opacity="0.5" d="M252 88C253.711 79.8698 260.377 73.8044 268.345 73.8044C269.808 73.8044 271.227 74.0097 272.58 74.3937C276.513 65.2144 285.048 58.8542 294.945 58.8542C297.504 58.8542 299.971 59.2793 302.292 60.0682C307.62 50.4387 317.3 44 328.359 44C341.515 44 352.721 53.1141 356.968 65.8728C359.974 64.044 363.433 62.9979 367.119 62.9979C378.651 62.9979 388 73.2015 388 85.7883C388 86.5348 387.965 87.272 387.901 87.9997H252V88Z" fill="white"/>
<path opacity="0.5" d="M-12 132C-10.4901 124.794 -4.60834 119.418 2.42246 119.418C3.71315 119.418 4.96502 119.599 6.15857 119.94C9.6287 111.804 17.1597 106.166 25.8924 106.166C28.1502 106.166 30.3276 106.543 32.3751 107.242C37.0767 98.7071 45.6179 93 55.3753 93C66.9842 93 76.8719 101.078 80.6185 112.387C83.2709 110.766 86.3236 109.839 89.5754 109.839C99.7511 109.839 108 118.883 108 130.04C108 130.701 107.969 131.355 107.912 132L-12 132Z" fill="white"/>
<path opacity="0.5" d="M275 145C275.969 140.381 279.743 136.934 284.254 136.934C285.083 136.934 285.886 137.051 286.652 137.269C288.878 132.054 293.711 128.44 299.314 128.44C300.763 128.44 302.16 128.681 303.474 129.13C306.491 123.658 311.971 120 318.232 120C325.682 120 332.026 125.178 334.43 132.428C336.132 131.389 338.091 130.794 340.178 130.794C346.707 130.794 352 136.592 352 143.743C352 144.167 351.98 144.586 351.944 145L275 145Z" fill="white"/>
<path d="M364.928 189.714C352.25 193.205 363.454 209.424 366.652 213.67C363.874 217.539 361.649 221.316 359.879 224.883C358.332 218.623 361.316 213.059 359.116 209.444C356.65 205.39 351.343 202.782 349.438 211.276C347.929 218.007 355.849 224.058 359.205 226.282C356.266 232.518 354.691 238.038 353.85 242.182C350.994 235.23 353.701 228.423 350.743 224.583C347.507 220.381 341.366 218.149 340.432 227.849C339.659 235.867 349.981 241.761 353.586 243.566C352.908 247.37 352.881 249.736 352.88 249.989C352.8 254.765 352.985 259.364 353.384 263.782C350.725 257.716 351.827 251.462 348.683 248.32C344.909 244.549 338.58 243.148 339.072 252.998C339.46 260.792 349.508 265.25 353.69 266.773C354.743 275.979 356.727 284.352 359.193 291.835C354.881 287.295 351.927 277.997 346.583 275.108C343.078 273.213 340.65 274.349 339.224 275.649C338.006 276.761 337.445 278.373 337.648 280.07C338.793 289.659 354.81 292.573 359.663 293.239C362.807 302.416 366.658 310.2 370.361 316.463C368.111 314.133 364.731 310.601 363.054 308.696C360.411 305.692 355.334 302.863 351.669 303.338C351.517 303.358 351.369 303.383 351.226 303.41C348.489 303.949 346.86 306.493 347.185 309.257C348.457 320.068 367.663 319.147 371.79 318.823C371.817 318.865 371.844 318.91 371.87 318.953C381.58 334.523 391.273 342.633 391.681 342.97L392.841 341.612C392.747 341.533 383.525 333.806 374.266 319.351C384.609 306.073 380.238 295.609 375.792 294.555C371.198 293.466 365.532 297.086 368.951 304.377C370.933 308.606 372.039 313.412 372.619 316.707C368.828 310.439 364.82 302.512 361.563 293.079C381.032 281.328 371.381 269.652 365.667 270.412C359.883 271.182 358.914 275.253 360.569 281.697C361.668 285.977 361.428 289.771 361.143 291.844C358.698 284.513 356.722 276.297 355.648 267.26C359.905 267.612 370.805 267.769 373.402 260.542C376.648 251.508 370.315 250.141 365.708 252.08C361.473 253.863 361.017 261.392 355.499 265.947C354.957 260.929 354.691 255.668 354.783 250.166C354.782 250.076 354.837 245.329 356.869 238.134C361.136 239.004 371.959 240.453 375.492 233.715C379.929 225.253 373.755 223.133 368.882 224.468C364.533 225.66 363.046 232.598 357.359 236.47C359.235 230.417 362.485 222.894 368.084 215.035C372.517 215.907 382.989 217.168 386.452 210.564C390.889 202.102 384.715 199.981 379.841 201.317C375.431 202.525 373.967 209.646 368.079 213.483L367.912 213.361C368.772 210.914 370.616 205.73 371.635 203.304C372.994 200.067 372.895 194.912 370.505 192.103C368.115 189.292 364.928 189.714 364.928 189.714Z" fill="#D8E4EF"/>
</g>
<defs>
<clipPath id="clip0">
<rect width="375" height="375" fill="white"/>
</clipPath>
</defs>
</svg>
